<mxfile host="app.diagrams.net" modified="2020-09-10T17:24:33.173Z" agent="5.0 (X11)" etag="OD7lF9B16geN3VxHVhNd" version="13.6.9" type="github">
  <diagram id="ju_p1HaEZu-QdkVc3XQt" name="Page-1">
    <mxGraphModel dx="811" dy="498" grid="1" gridSize="10" guides="1" tooltips="1" connect="1" arrows="1" fold="1" page="1" pageScale="1" pageWidth="850" pageHeight="1100" math="0" shadow="0">
      <root>
        <mxCell id="0" />
        <mxCell id="1" parent="0" />
        <mxCell id="AQ5POCD9kcWEuEW1KcTd-1" value="trajectory_publisher.cpp" style="rounded=1;whiteSpace=wrap;html=1;" vertex="1" parent="1">
          <mxGeometry x="290" y="310" width="170" height="50" as="geometry" />
        </mxCell>
        <mxCell id="AQ5POCD9kcWEuEW1KcTd-2" value="circle_maneuver.cpp" style="rounded=1;whiteSpace=wrap;html=1;" vertex="1" parent="1">
          <mxGeometry x="70" y="110" width="130" height="60" as="geometry" />
        </mxCell>
        <mxCell id="AQ5POCD9kcWEuEW1KcTd-3" value="slit_maneuver.cpp" style="rounded=1;whiteSpace=wrap;html=1;" vertex="1" parent="1">
          <mxGeometry x="315" y="110" width="120" height="60" as="geometry" />
        </mxCell>
        <mxCell id="AQ5POCD9kcWEuEW1KcTd-4" value="flip_maneuver" style="rounded=1;whiteSpace=wrap;html=1;" vertex="1" parent="1">
          <mxGeometry x="570" y="110" width="120" height="60" as="geometry" />
        </mxCell>
      </root>
    </mxGraphModel>
  </diagram>
</mxfile>
